{"title":"The Other Guys 2010 DVDRip 7SPEED","uid":5945855,"size":741521533,"categoryP":"video","categoryS":"movies","magnet":"?xt=urn:btih:f1217ddd8ae121a613fcc6b85590038cdf9903a2&amp;dn=The+Other+Guys+2010+DVDRip+7SPEED&amp;tr=udp%3A%2F%2Ftracker.openbittorrent.com%3A80&amp;tr=udp%3A%2F%2Fopen.demonii.com%3A1337&amp;tr=udp%3A%2F%2Ftracker.coppersurfer.tk%3A6969&amp;tr=udp%3A%2F%2Fexodus.desync.com%3A6969","seeders":1,"leechers":1,"uploader":"IwannaFan2","files":7,"time":1289360877,"description":"Filename:\nThe Other Guys 2010 DVDRip 7SPEED\n &lt;a href=&quot;\nhttp://www.imdb.com/title/tt1386588/&quot; rel=&quot;nofollow&quot; target=&quot;_NEW&quot;&gt;\nhttp://www.imdb.com/title/tt1386588/&lt;/a&gt;\n\nVideo\nID                               : 0\nFormat                           : MPEG-4 Visual\nFormat settings, BVOP            : Yes\nFormat settings, QPel            : No\nFormat settings, GMC             : No warppoints\nFormat settings, Matrix          : Default (H.263)\nCodec ID                         : DX50\nCodec ID/Hint                    : DivX 5\nDuration                         : 1h 56mn\nBit rate                         : 703 Kbps\nWidth                            : 640 pixels\nHeight                           : 480 pixels\nDisplay aspect ratio             : 4:3\nFrame rate                       : 30.000 fps\nResolution                       : 24 bits\nColorimetry                      : 4:2:0\nScan type                        : Progressive\nBits/(Pixel*Frame)               : 0.076\nStream size                      : 585 MiB (83%)\nWriting library                  : DivX 2151n\n\nAudio\nID                               : 1\nFormat                           : MPEG Audio\nFormat version                   : Version 1\nFormat profile                   : Layer 3\nCodec ID                         : 55\nCodec ID/Hint                    : MP3\nDuration                         : 1h 56mn\nBit rate mode                    : Constant\nBit rate                         : 128 Kbps\nChannel(s)                       : 2 channels\nSampling rate                    : 48.0 KHz\nResolution                       : 16 bits\nStream size                      : 106 MiB (15%)\nAlignment                        : Aligned on interleaves\nInterleave, duration             : 33 ms (1.00 video frame)","torrent":{"xt":"urn:btih:f1217ddd8ae121a613fcc6b85590038cdf9903a2","amp;dn":"The+Other+Guys+2010+DVDRip+7SPEED","amp;tr":["udp%3A%2F%2Ftracker.openbittorrent.com%3A80","udp%3A%2F%2Fopen.demonii.com%3A1337","udp%3A%2F%2Ftracker.coppersurfer.tk%3A6969","udp%3A%2F%2Fexodus.desync.com%3A6969"],"infoHash":"f1217ddd8ae121a613fcc6b85590038cdf9903a2","infoHashBuffer":{"type":"Buffer","data":[241,33,125,221,138,225,33,166,19,252,198,184,85,144,3,140,223,153,3,162]},"announce":[],"urlList":[]}}